<?xml version="1.0" encoding="utf-8"?>
<!-- Generator: Adobe Illustrator 27.7.0, SVG Export Plug-In . SVG Version: 6.00 Build 0)  -->
<svg version="1.1" id="Calque_1" xmlns="http://www.w3.org/2000/svg" xmlns:xlink="http://www.w3.org/1999/xlink" x="0px" y="0px"
	 viewBox="0 0 300 209.96" style="enable-background:new 0 0 300 209.96;" xml:space="preserve">
<style type="text/css">
	.st0{fill:#FFFFFF;}
	.st1{fill:#1D1D1B;}
	.st2{fill:none;stroke:#1D1D1B;stroke-width:5;stroke-linejoin:round;stroke-miterlimit:10;}
	.st3{fill:none;stroke:#1D1D1B;stroke-width:5;stroke-linecap:round;stroke-linejoin:round;stroke-miterlimit:10;}
	.st4{fill:#47E5C9;}
	.st5{fill:none;stroke:#47E5C9;stroke-width:11;stroke-linecap:round;stroke-linejoin:round;stroke-miterlimit:10;}
	.st6{fill:none;stroke:#2044E0;stroke-width:11;stroke-linecap:round;stroke-linejoin:round;stroke-miterlimit:10;}
</style>
<g>
	<rect x="2.5" y="2.5" class="st0" width="295" height="204.96"/>
	<path class="st1" d="M295,5v199.96H5V5H295 M300,0H0v209.96h300V0L300,0z"/>
</g>
<g>
	<line class="st2" x1="2.49" y1="27.49" x2="297.71" y2="27.49"/>
</g>
<line class="st3" x1="10.06" y1="14.34" x2="165.84" y2="14.34"/>
<line class="st3" x1="182.57" y1="14.34" x2="201.69" y2="14.34"/>
<line class="st3" x1="263.45" y1="14.34" x2="282.57" y2="14.34"/>
<line class="st3" x1="223.01" y1="14.34" x2="242.13" y2="14.34"/>
<g>
	<polyline class="st0" points="39.39,84.91 59.31,135.11 70.46,84.91 81.62,135.11 100.74,84.91 	"/>
	<path class="st4" d="M59.3,140.61c-2.24,0-4.27-1.36-5.11-3.47l-19.92-50.2c-1.12-2.82,0.26-6.02,3.08-7.14s6.02,0.26,7.14,3.08
		l13.32,33.57l7.27-32.73c0.56-2.52,2.79-4.31,5.37-4.31s4.81,1.79,5.37,4.31l7.18,32.29L95.6,82.95c1.08-2.84,4.26-4.26,7.1-3.18
		c2.84,1.08,4.26,4.26,3.18,7.1l-19.12,50.2c-0.86,2.27-3.11,3.71-5.54,3.53c-2.42-0.18-4.44-1.92-4.97-4.29l-5.79-26.04
		l-5.79,26.04c-0.52,2.36-2.52,4.1-4.93,4.29C59.6,140.6,59.45,140.61,59.3,140.61z"/>
</g>
<polyline class="st5" points="206.33,84.91 226.25,135.11 237.4,84.91 248.56,135.11 267.68,84.91 "/>
<polyline class="st6" points="122.86,84.91 142.78,135.11 153.93,84.91 165.09,135.11 184.21,84.91 "/>
</svg>
